<svg data-v-0dd9719b="" version="1.0" xmlns="http://www.w3.org/2000/svg" xmlns:xlink="http://www.w3.org/1999/xlink" width="100%" height="100%" viewBox="0 0 340.000000 250.000000" preserveAspectRatio="xMidYMid meet" color-interpolation-filters="sRGB" style="margin: auto;"> <rect data-v-0dd9719b="" x="0" y="0" width="100%" height="100%" fill="#fff" fill-opacity="1" class="background"></rect> <rect data-v-0dd9719b="" x="0" y="0" width="100%" height="100%" fill="url(#watermark)" fill-opacity="1" class="watermarklayer"></rect> <g data-v-0dd9719b="" fill="#333" class="icon-text-wrapper icon-svg-group iconsvg" transform="translate(47.519996643066406,95.03805160522461)"><g class="iconsvg-imagesvg" transform="translate(0,0)"><g><rect fill="#333" fill-opacity="0" stroke-width="2" x="0" y="0" width="60" height="59.9238966512529" class="image-rect"></rect> <svg x="0" y="0" width="60" height="59.9238966512529" filtersec="colorsb6743653523" class="image-svg-svg primary" style="overflow: visible;"><svg xmlns="http://www.w3.org/2000/svg" viewBox="-0.013412523083388805 0 100.12681579589844 100"><g fill-rule="evenodd"><path d="M50.05 64.56a33.61 33.61 0 0 1-33.61-33.62 2.25 2.25 0 0 1 4.5 0 29.11 29.11 0 0 0 29.11 29.12 9 9 0 1 1 0 18 2.25 2.25 0 1 1 0-4.49 4.5 4.5 0 0 0 3.19-1.33 4.51 4.51 0 0 0-3.19-7.69zm0-12.31a21.31 21.31 0 0 1-2.25-42.5V0a50.05 50.05 0 0 0 0 100v-9.74a21.27 21.27 0 0 1-13.54-6.9 2.24 2.24 0 1 1 3.32-3 17 17 0 0 0 5.66 4.1 16.82 16.82 0 1 0 6.81-32.2z" fill="#0d72ff"></path><path d="M50.05 35.45a33.63 33.63 0 0 1 33.62 33.62 2.25 2.25 0 0 1-4.5 0A29.12 29.12 0 0 0 50.05 40a9 9 0 0 1 0-18 2.25 2.25 0 0 1 0 4.5 4.51 4.51 0 1 0 0 9zm0 12.3a21.32 21.32 0 0 1 2.25 42.51V100a50.05 50.05 0 0 0 0-100v9.75a21.36 21.36 0 0 1 13.55 6.89 2.24 2.24 0 0 1-3.33 3 16.82 16.82 0 1 0-12.47 28.1z" fill="#0daeff"></path></g></svg></svg> <!----></g></g> <g transform="translate(67,15.241949081420898)"><g data-gra="path-name" fill-rule="" class="tp-name iconsvg-namesvg"><g transform="scale(1)"><g><path d="M6.62 0.19L6.62 0.19 1.68 0.69Q1.72-0.56 1.75-1.92 1.78-3.27 1.79-4.62 1.81-5.96 1.83-7.26 1.85-8.56 1.85-9.72L1.85-9.72Q1.87-12.45 1.87-15.09L1.87-15.09Q1.85-17.44 1.81-19.65L1.81-19.65Q1.79-20.59 1.77-21.58 1.74-22.57 1.7-23.52 1.66-24.47 1.62-25.33 1.57-26.18 1.5-26.85L1.5-26.85 6.21-27.07Q6.17-25.91 6.14-24.69 6.11-23.47 6.1-22.26 6.08-21.05 6.07-19.93 6.06-18.81 6.06-17.84L6.06-17.84Q6.06-12.96 6.18-8.54 6.3-4.11 6.62 0.19ZM20.79-27.3L25.77-27.45Q25.67-25.93 25.61-24.3 25.54-22.66 25.49-21.02 25.45-19.37 25.42-17.78 25.39-16.19 25.37-14.79 25.35-13.39 25.35-12.23 25.35-11.07 25.35-10.26L25.35-10.26Q25.35-9.22 25.35-7.95 25.35-6.67 25.37-5.33 25.39-3.98 25.42-2.63 25.45-1.27 25.5-0.07L25.5-0.07Q24.7-0.11 24.04-0.11 23.37-0.11 22.83-0.11L22.83-0.11Q21.86-0.11 21.22-0.09 20.59-0.07 20.21-0.04L20.21-0.04Q19.76 0 19.52 0.04L19.52 0.04Q19.46-0.36 19.29-1.19 19.11-2.02 18.84-3.16 18.57-4.3 18.21-5.68 17.86-7.07 17.45-8.56 17.05-10.06 16.62-11.6 16.19-13.14 15.77-14.61 15.35-16.08 14.95-17.4 14.55-18.72 14.21-19.76L14.21-19.76Q14.06-17.37 13.99-15.34 13.91-13.31 13.87-11.8L13.87-11.8Q13.82-10.04 13.82-8.58L13.82-8.58Q13.82-7.33 13.87-5.93L13.87-5.93Q13.91-4.73 14.01-3.2 14.12-1.66 14.32-0.07L14.32-0.07Q12.88-0.13 11.96-0.14 11.03-0.15 10.49-0.15L10.49-0.15 9.57-0.15Q9.67-3.5 9.72-5.83 9.78-8.17 9.81-9.75 9.83-11.33 9.84-12.28 9.85-13.24 9.85-13.83 9.85-14.42 9.84-14.77 9.83-15.13 9.83-15.5L9.83-15.5Q9.83-16.44 9.83-17.73 9.82-19.02 9.78-20.5 9.74-21.99 9.67-23.6 9.59-25.2 9.46-26.77L9.46-26.77Q11.37-26.77 12.6-26.81 13.84-26.85 14.57-26.89L14.57-26.89Q15.43-26.94 15.89-27L15.89-27Q15.99-26.4 16.28-25.13 16.57-23.86 16.97-22.18 17.37-20.51 17.87-18.57 18.38-16.62 18.91-14.65 19.45-12.68 19.99-10.82 20.53-8.96 21.02-7.46L21.02-7.46Q21.11-9.05 21.16-10.7 21.2-12.36 21.23-13.8 21.26-15.24 21.26-16.31 21.26-17.39 21.26-17.8L21.26-17.8Q21.24-19.5 21.18-21.2L21.18-21.2Q21.17-21.93 21.13-22.72 21.09-23.5 21.04-24.3 21-25.09 20.93-25.86 20.87-26.63 20.79-27.3L20.79-27.3ZM37.17 0.3L37.17 0.3 36.65 0.3Q35.49 0.3 34.45 0.42 33.41 0.54 32.23 0.77L32.23 0.77Q32.48-3.35 32.61-6.96 32.74-10.58 32.74-13.99L32.74-13.99Q32.74-18.34 32.51-22.59L32.51-22.59 27.8-22.25Q27.78-22.89 27.77-23.42 27.75-23.95 27.71-24.45 27.67-24.94 27.62-25.46 27.56-25.97 27.49-26.61L27.49-26.61 29.75-26.61Q31.24-26.61 32.67-26.63 34.1-26.64 35.53-26.68 36.96-26.72 38.43-26.77 39.9-26.83 41.47-26.92L41.47-26.92Q41.38-25.97 41.35-25.31 41.32-24.64 41.32-23.93L41.32-23.93 41.32-22.94 36.72-22.83Q36.67-21.03 36.66-19.31 36.65-17.58 36.65-15.82L36.65-15.82Q36.65-11.74 36.78-7.74 36.91-3.74 37.17 0.3ZM56.39 0.43L56.39 0.43Q54.88 0.39 53.58 0.38 52.28 0.37 51.12 0.37L51.12 0.37Q48.86 0.37 47.33 0.42 45.81 0.47 44.86 0.5L44.86 0.5Q43.73 0.56 43.08 0.62L43.08 0.62Q43.21-0.64 43.31-1.91 43.42-3.18 43.49-4.41 43.56-5.65 43.62-6.79 43.68-7.93 43.71-8.94L43.71-8.94Q43.79-11.29 43.81-13.44L43.81-13.44Q43.79-15.69 43.71-18.04L43.71-18.04Q43.68-19.05 43.62-20.17 43.56-21.28 43.49-22.44 43.42-23.6 43.31-24.76 43.21-25.93 43.08-27.04L43.08-27.04Q45.42-26.94 47.26-26.9 49.1-26.85 50.54-26.85L50.54-26.85Q51.96-26.85 52.99-26.88 54.02-26.91 54.67-26.94L54.67-26.94Q55.44-26.98 55.94-27.04L55.94-27.04Q55.94-27.06 55.94-26.7 55.94-26.34 55.96-25.77 55.98-25.19 56.03-24.46 56.07-23.73 56.17-22.98L56.17-22.98Q54-23.18 52.37-23.25 50.74-23.32 49.59-23.32L49.59-23.32Q49.1-23.32 48.73-23.32 48.37-23.32 48.05-23.28L48.05-23.28Q48.01-21.2 48-19.38 47.98-17.56 47.98-15.93L47.98-15.93Q49.29-15.97 50.31-16.03 51.34-16.1 52.07-16.19L52.07-16.19Q52.91-16.29 53.57-16.4L53.57-16.4Q53.55-16.27 53.55-16.1L53.55-16.1Q53.53-15.95 53.53-15.74 53.53-15.54 53.53-15.28L53.53-15.28Q53.53-14.68 53.57-13.85 53.61-13.01 53.72-12.06L53.72-12.06Q51.7-12.32 50.24-12.39 48.78-12.45 47.98-12.45L47.98-12.45Q47.98-10.51 48-8.98 48.01-7.46 48.04-6.3 48.07-5.14 48.1-4.32 48.13-3.5 48.16-2.95L48.16-2.95Q50.07-2.99 51.57-3.14 53.06-3.29 54.09-3.45 55.12-3.61 55.66-3.74 56.2-3.87 56.2-3.91L56.2-3.91Q56.19-3.81 56.19-3.7L56.19-3.7Q56.17-3.61 56.17-3.46 56.17-3.31 56.17-3.1L56.17-3.1Q56.17-2.58 56.2-1.7 56.24-0.82 56.39 0.43ZM75.13 0.5L69.69 0.34Q69.29-0.21 69.1-0.88 68.9-1.55 68.81-2.16 68.71-2.77 68.7-3.22 68.69-3.66 68.69-3.76L68.69-3.76Q68.69-4.36 68.65-5.19 68.6-6.02 68.43-6.91 68.26-7.8 67.96-8.67 67.65-9.54 67.11-10.23 66.58-10.92 65.81-11.34 65.03-11.76 63.95-11.76L63.95-11.76Q63.8-11.76 63.64-11.74 63.48-11.72 63.33-11.72L63.33-11.72 63.33-0.07 58.17 0.04Q58.28-0.62 58.36-1.51 58.45-2.39 58.5-3.39 58.56-4.39 58.6-5.48 58.64-6.56 58.65-7.61 58.67-8.66 58.68-9.64 58.69-10.62 58.69-11.41L58.69-11.41Q58.69-12 58.68-13.16 58.67-14.32 58.64-15.77 58.62-17.22 58.59-18.82 58.56-20.42 58.52-21.89 58.49-23.35 58.44-24.56 58.39-25.77 58.35-26.42L58.35-26.42Q59.38-26.63 60.56-26.73 61.74-26.83 62.75-26.89L62.75-26.89Q63.93-26.96 65.09-26.96L65.09-26.96Q66.96-27.04 68.6-26.65 70.25-26.27 71.49-25.36 72.73-24.46 73.47-23.03 74.21-21.6 74.25-19.61L74.25-19.61Q73.95-18.21 73.29-17.01L73.29-17.01Q73.01-16.51 72.63-15.98 72.25-15.44 71.73-14.98 71.22-14.51 70.56-14.13 69.91-13.74 69.11-13.52L69.11-13.52Q70.3-13.05 71.05-12.42 71.8-11.8 72.23-11.02 72.66-10.25 72.85-9.36 73.05-8.47 73.13-7.49 73.22-6.51 73.28-5.47 73.33-4.43 73.48-3.37L73.48-3.37Q73.63-2.56 73.85-1.83L73.85-1.83Q74.06-1.2 74.37-0.55 74.68 0.09 75.13 0.5L75.13 0.5ZM69.5-19.37L69.5-19.37Q69.48-20.57 68.97-21.52L68.97-21.52Q68.75-21.91 68.4-22.31 68.06-22.7 67.54-23 67.03-23.3 66.31-23.48 65.59-23.67 64.64-23.67L64.64-23.67Q63.91-23.67 63.03-23.47L63.03-23.47 63.1-15.01Q63.44-14.96 63.78-14.93 64.11-14.9 64.39-14.9L64.39-14.9Q65.29-14.9 65.98-15.09 66.67-15.28 67.2-15.59 67.72-15.91 68.1-16.3 68.47-16.7 68.73-17.13L68.73-17.13Q69.33-18.12 69.5-19.37ZM91.17-6.43L91.17-6.43Q90.98-4.32 90.21-2.93 89.43-1.53 88.31-0.7 87.19 0.13 85.83 0.47 84.47 0.8 83.13 0.8L83.13 0.8Q81.73 0.8 80.43 0.42 79.13 0.04 78.14-0.73 77.15-1.5 76.56-2.66 75.97-3.81 75.97-5.37L75.97-5.37Q75.97-6.56 76.33-7.37 76.7-8.17 77.24-8.66 77.78-9.14 78.4-9.34 79.02-9.54 79.54-9.54L79.54-9.54Q80.08-9.54 80.66-9.37 81.24-9.2 81.73-8.81 82.21-8.41 82.52-7.75 82.83-7.09 82.83-6.1L82.83-6.1Q82.83-6.08 82.8-5.75 82.77-5.42 82.59-5 82.4-4.58 82.02-4.18 81.63-3.78 80.9-3.61L80.9-3.61Q81.43-2.95 82.13-2.63 82.83-2.3 83.32-2.3L83.32-2.3Q83.8-2.3 84.43-2.47 85.05-2.64 85.61-3.04 86.16-3.44 86.54-4.1 86.92-4.77 86.92-5.78L86.92-5.78Q86.92-6.96 86.52-7.87 86.12-8.79 85.49-9.49 84.87-10.19 84.09-10.72 83.32-11.26 82.59-11.69L82.59-11.69Q82.1-11.97 81.43-12.35 80.75-12.73 80.02-13.27 79.3-13.8 78.59-14.48 77.87-15.16 77.3-16.03 76.73-16.9 76.39-17.97 76.04-19.03 76.04-20.32L76.04-20.32Q76.04-22.25 76.72-23.7 77.39-25.15 78.46-26.12 79.54-27.09 80.9-27.58 82.27-28.06 83.67-28.06L83.67-28.06Q85.07-28.06 86.34-27.68 87.62-27.3 88.58-26.58 89.54-25.86 90.11-24.86 90.68-23.86 90.68-22.62L90.68-22.62Q90.68-21.37 90.27-20.64 89.86-19.91 89.29-19.54 88.72-19.16 88.13-19.06 87.54-18.96 87.19-18.96L87.19-18.96Q86.74-18.96 86.25-19.13 85.77-19.3 85.36-19.63 84.96-19.97 84.7-20.45 84.44-20.94 84.44-21.6L84.44-21.6Q84.46-22.01 84.53-22.42L84.53-22.42Q84.61-22.77 84.76-23.18 84.9-23.6 85.2-23.97L85.2-23.97Q84.9-24.23 84.62-24.38 84.34-24.53 84.1-24.61L84.1-24.61Q83.82-24.68 83.56-24.7L83.56-24.7Q83.04-24.7 82.5-24.51 81.97-24.33 81.53-23.95 81.09-23.58 80.81-23.01 80.53-22.44 80.53-21.67L80.53-21.67Q80.53-20.77 80.81-20.05 81.09-19.33 81.69-18.66 82.29-17.99 83.21-17.3 84.14-16.6 85.43-15.78L85.43-15.78Q86.94-14.83 88.04-13.87 89.13-12.92 89.83-11.91 90.53-10.9 90.87-9.79 91.21-8.68 91.21-7.39L91.21-7.39Q91.21-7.16 91.21-6.93 91.21-6.69 91.17-6.43ZM110.28-13.41L110.28-13.41Q110.28-10.41 109.72-7.8 109.16-5.18 108.05-3.23 106.95-1.27 105.31-0.14 103.68 0.99 101.55 0.99L101.55 0.99Q99.38 0.99 97.74-0.14 96.1-1.27 95.01-3.23 93.92-5.18 93.37-7.8 92.81-10.41 92.81-13.41L92.81-13.41Q92.81-16.38 93.35-19 93.88-21.61 94.96-23.56 96.05-25.5 97.69-26.63 99.34-27.77 101.55-27.77L101.55-27.77Q103.83-27.77 105.48-26.63 107.14-25.5 108.2-23.56 109.27-21.61 109.77-19 110.28-16.38 110.28-13.41ZM105.38-13.41L105.38-13.41Q105.38-15.72 105.19-17.77 105-19.82 104.57-21.34 104.13-22.87 103.39-23.75 102.65-24.62 101.55-24.62L101.55-24.62Q100.48-24.62 99.75-23.75 99.02-22.87 98.57-21.34 98.12-19.82 97.92-17.77 97.71-15.72 97.71-13.41L97.71-13.41Q97.71-11.07 97.92-9.02 98.12-6.97 98.58-5.45 99.04-3.93 99.77-3.04 100.5-2.15 101.55-2.15L101.55-2.15Q102.57-2.15 103.3-3.04 104.03-3.93 104.5-5.45 104.97-6.97 105.17-9.02 105.38-11.07 105.38-13.41ZM127.46-12.28L127.46-12.28Q127.46-10.69 127.36-9.07 127.25-7.44 126.96-5.93 126.67-4.41 126.14-3.08 125.61-1.74 124.77-0.75 123.93 0.24 122.73 0.81 121.53 1.38 119.89 1.38L119.89 1.38Q118.32 1.38 117.16 0.89 116 0.39 115.18-0.46 114.35-1.31 113.84-2.48 113.33-3.65 113.03-4.98 112.73-6.32 112.61-7.78 112.5-9.24 112.5-10.68L112.5-10.68Q112.5-11.05 112.51-11.33 112.52-11.61 112.54-11.94 112.56-12.27 112.59-12.72 112.61-13.18 112.65-13.9 112.69-14.62 112.74-15.68 112.78-16.73 112.85-18.27 112.91-19.8 112.98-21.89 113.04-23.97 113.14-26.74L113.14-26.74 118.73-26.53Q118.45-23.65 118.21-21.59 117.96-19.52 117.78-17.95 117.59-16.38 117.44-15.18 117.29-13.99 117.2-12.86 117.1-11.74 117.06-10.56 117.01-9.39 117.01-7.85L117.01-7.85Q117.01-4.99 117.63-3.52 118.24-2.04 119.7-2.04L119.7-2.04Q121.29-2.04 122.14-3.94 122.99-5.83 122.99-9.91L122.99-9.91Q122.99-14.36 122.67-18.5 122.36-22.64 121.83-26.68L121.83-26.68 127.12-26.85Q127.09-26.12 127.09-25.42 127.09-24.72 127.09-24.01L127.09-24.01Q127.09-22.04 127.14-20.2 127.2-18.36 127.27-16.82 127.35-15.28 127.4-14.1 127.46-12.92 127.46-12.28ZM147.04 0.5L141.6 0.34Q141.2-0.21 141.01-0.88 140.81-1.55 140.72-2.16 140.62-2.77 140.61-3.22 140.6-3.66 140.6-3.76L140.6-3.76Q140.6-4.36 140.56-5.19 140.51-6.02 140.34-6.91 140.17-7.8 139.87-8.67 139.56-9.54 139.02-10.23 138.49-10.92 137.72-11.34 136.94-11.76 135.86-11.76L135.86-11.76Q135.71-11.76 135.55-11.74 135.39-11.72 135.24-11.72L135.24-11.72 135.24-0.07 130.08 0.04Q130.19-0.62 130.27-1.51 130.36-2.39 130.41-3.39 130.47-4.39 130.51-5.48 130.55-6.56 130.56-7.61 130.58-8.66 130.59-9.64 130.6-10.62 130.6-11.41L130.6-11.41Q130.6-12 130.59-13.16 130.58-14.32 130.55-15.77 130.53-17.22 130.5-18.82 130.47-20.42 130.43-21.89 130.4-23.35 130.35-24.56 130.3-25.77 130.26-26.42L130.26-26.42Q131.29-26.63 132.47-26.73 133.65-26.83 134.66-26.89L134.66-26.89Q135.84-26.96 137-26.96L137-26.96Q138.87-27.04 140.51-26.65 142.16-26.27 143.4-25.36 144.64-24.46 145.38-23.03 146.12-21.6 146.16-19.61L146.16-19.61Q145.86-18.21 145.2-17.01L145.2-17.01Q144.92-16.51 144.54-15.98 144.16-15.44 143.64-14.98 143.13-14.51 142.47-14.13 141.82-13.74 141.02-13.52L141.02-13.52Q142.21-13.05 142.96-12.42 143.71-11.8 144.14-11.02 144.57-10.25 144.76-9.36 144.96-8.47 145.05-7.49 145.13-6.51 145.19-5.47 145.24-4.43 145.39-3.37L145.39-3.37Q145.54-2.56 145.77-1.83L145.77-1.83Q145.97-1.2 146.28-0.55 146.59 0.09 147.04 0.5L147.04 0.5ZM141.41-19.37L141.41-19.37Q141.39-20.57 140.89-21.52L140.89-21.52Q140.66-21.91 140.31-22.31 139.97-22.7 139.45-23 138.94-23.3 138.22-23.48 137.5-23.67 136.55-23.67L136.55-23.67Q135.82-23.67 134.94-23.47L134.94-23.47 135.01-15.01Q135.35-14.96 135.69-14.93 136.02-14.9 136.3-14.9L136.3-14.9Q137.2-14.9 137.89-15.09 138.59-15.28 139.11-15.59 139.63-15.91 140.01-16.3 140.38-16.7 140.64-17.13L140.64-17.13Q141.24-18.12 141.41-19.37ZM164.35-5.63L164.35-5.63Q164.35-3.87 163.71-2.57 163.08-1.27 162.09-0.42 161.1 0.43 159.9 0.85 158.7 1.27 157.6 1.27L157.6 1.27Q155.77 1.27 154.03 0.44 152.29-0.39 150.92-2.16 149.54-3.93 148.71-6.7 147.88-9.48 147.88-13.37L147.88-13.37Q147.88-15.97 148.28-18.01 148.68-20.04 149.36-21.6 150.05-23.15 150.97-24.24 151.9-25.33 152.96-26.02 154.03-26.7 155.17-27.02 156.31-27.34 157.41-27.34L157.41-27.34Q159.08-27.34 160.28-26.87 161.49-26.4 162.27-25.67 163.06-24.94 163.43-24.04 163.81-23.15 163.81-22.29L163.81-22.29Q163.81-21.43 163.57-20.74 163.34-20.06 162.95-19.59 162.56-19.13 162.01-18.88 161.47-18.64 160.85-18.64L160.85-18.64Q160.33-18.64 159.81-18.83 159.28-19.02 158.87-19.37 158.46-19.73 158.21-20.24 157.96-20.75 157.96-21.41L157.96-21.41Q157.97-21.78 158.05-22.19L158.05-22.19Q158.12-22.55 158.28-22.97 158.44-23.39 158.76-23.82L158.76-23.82Q158.48-24.08 158.16-24.24 157.84-24.4 157.58-24.47L157.58-24.47Q157.26-24.55 156.95-24.59L156.95-24.59Q156.22-24.59 155.66-24.14 155.1-23.69 154.68-22.89 154.27-22.1 153.99-21.02 153.71-19.93 153.55-18.66 153.39-17.39 153.32-16 153.24-14.6 153.24-13.18L153.24-13.18Q153.24-11.05 153.48-8.98 153.71-6.92 154.24-5.28 154.78-3.65 155.67-2.65 156.55-1.65 157.84-1.65L157.84-1.65Q158.63-1.7 159.26-2.09L159.26-2.09Q159.55-2.26 159.81-2.51 160.07-2.77 160.28-3.15 160.5-3.53 160.64-4.04 160.78-4.54 160.82-5.22L160.82-5.22Q160.5-5.09 160.09-5.09L160.09-5.09Q159.64-5.09 159.22-5.28 158.8-5.48 158.46-5.82 158.12-6.17 157.92-6.65 157.71-7.12 157.71-7.7L157.71-7.7Q157.71-8.58 158.11-9.15 158.52-9.72 159.04-10.06 159.56-10.4 160.07-10.54 160.57-10.68 160.78-10.68L160.78-10.68Q160.93-10.68 161.25-10.63 161.56-10.58 161.97-10.41 162.37-10.25 162.79-9.92 163.21-9.59 163.56-9.03 163.9-8.47 164.13-7.64 164.35-6.81 164.35-5.63ZM179.46 0.43L179.46 0.43Q177.94 0.39 176.64 0.38 175.34 0.37 174.19 0.37L174.19 0.37Q171.92 0.37 170.4 0.42 168.88 0.47 167.92 0.5L167.92 0.5Q166.8 0.56 166.15 0.62L166.15 0.62Q166.28-0.64 166.38-1.91 166.48-3.18 166.56-4.41 166.63-5.65 166.69-6.79 166.74-7.93 166.78-8.94L166.78-8.94Q166.86-11.29 166.87-13.44L166.87-13.44Q166.86-15.69 166.78-18.04L166.78-18.04Q166.74-19.05 166.69-20.17 166.63-21.28 166.56-22.44 166.48-23.6 166.38-24.76 166.28-25.93 166.15-27.04L166.15-27.04Q168.48-26.94 170.32-26.9 172.17-26.85 173.61-26.85L173.61-26.85Q175.03-26.85 176.05-26.88 177.08-26.91 177.74-26.94L177.74-26.94Q178.5-26.98 179.01-27.04L179.01-27.04Q179.01-27.06 179.01-26.7 179.01-26.34 179.03-25.77 179.05-25.19 179.09-24.46 179.14-23.73 179.23-22.98L179.23-22.98Q177.06-23.18 175.44-23.25 173.81-23.32 172.65-23.32L172.65-23.32Q172.17-23.32 171.8-23.32 171.44-23.32 171.12-23.28L171.12-23.28Q171.08-21.2 171.06-19.38 171.04-17.56 171.04-15.93L171.04-15.93Q172.35-15.97 173.38-16.03 174.41-16.1 175.14-16.19L175.14-16.19Q175.98-16.29 176.63-16.4L176.63-16.4Q176.62-16.27 176.62-16.1L176.62-16.1Q176.6-15.95 176.6-15.74 176.6-15.54 176.6-15.28L176.6-15.28Q176.6-14.68 176.63-13.85 176.67-13.01 176.78-12.06L176.78-12.06Q174.76-12.32 173.31-12.39 171.85-12.45 171.04-12.45L171.04-12.45Q171.04-10.51 171.06-8.98 171.08-7.46 171.11-6.3 171.14-5.14 171.17-4.32 171.19-3.5 171.23-2.95L171.23-2.95Q173.14-2.99 174.63-3.14 176.13-3.29 177.16-3.45 178.19-3.61 178.73-3.74 179.27-3.87 179.27-3.91L179.27-3.91Q179.25-3.81 179.25-3.7L179.25-3.7Q179.23-3.61 179.23-3.46 179.23-3.31 179.23-3.1L179.23-3.1Q179.23-2.58 179.27-1.7 179.31-0.82 179.46 0.43Z" transform="translate(-1.5, 28.059999465942383)"></path></g> <!----> <!----> <!----> <!----> <!----> <!----> <!----></g></g> <!----></g></g><defs v-gra="od"></defs></svg>